<svg width="39" height="38" viewBox="0 0 39 38" fill="none" xmlns="http://www.w3.org/2000/svg">
<path d="M26 33.25V30.0833C26 28.4036 25.3152 26.7927 24.0962 25.605C22.8772 24.4173 21.2239 23.75 19.5 23.75H9.75C8.02609 23.75 6.37279 24.4173 5.15381 25.605C3.93482 26.7927 3.25 28.4036 3.25 30.0833V33.25" stroke="#1C398E" stroke-width="3" stroke-linecap="round" stroke-linejoin="round"/>
<path d="M14.625 17.4167C18.2149 17.4167 21.125 14.5811 21.125 11.0833C21.125 7.58553 18.2149 4.75 14.625 4.75C11.0351 4.75 8.125 7.58553 8.125 11.0833C8.125 14.5811 11.0351 17.4167 14.625 17.4167Z" stroke="#1C398E" stroke-width="3" stroke-linecap="round" stroke-linejoin="round"/>
<path d="M35.75 33.25V30.0833C35.7489 28.68 35.2696 27.3169 34.3872 26.2078C33.5049 25.0988 32.2695 24.3066 30.875 23.9558" stroke="#1C398E" stroke-width="3" stroke-linecap="round" stroke-linejoin="round"/>
<path d="M26 4.95581C27.3982 5.30462 28.6374 6.09692 29.5224 7.2078C30.4074 8.31868 30.8877 9.68496 30.8877 11.0912C30.8877 12.4975 30.4074 13.8638 29.5224 14.9747C28.6374 16.0855 27.3982 16.8778 26 17.2266" stroke="#1C398E" stroke-width="3" stroke-linecap="round" stroke-linejoin="round"/>
</svg>
